<?xml version="1.0" standalone="no"?>
<!DOCTYPE svg PUBLIC "-//W3C//DTD SVG 20010904//EN"
 "http://www.w3.org/TR/2001/REC-SVG-20010904/DTD/svg10.dtd">
<svg version="1.0" xmlns="http://www.w3.org/2000/svg"
 width="400.000000pt" height="400.000000pt" viewBox="0 0 400.000000 400.000000"
 preserveAspectRatio="xMidYMid meet">
<metadata>
Created by potrace 1.11, written by Peter Selinger 2001-2013
</metadata>
<g transform="translate(0.000000,400.000000) scale(0.100000,-0.100000)"
fill="#000000" stroke="none">
<path d="M1954 3468 c-21 -35 -37 -65 -35 -67 1 -2 -1 -7 -6 -10 -13 -9 -173
-278 -173 -290 0 -6 -4 -11 -10 -11 -5 0 -10 -7 -10 -15 0 -7 -8 -19 -17 -24
-10 -6 -15 -11 -11 -11 8 0 -6 -28 -55 -103 -21 -32 -50 -81 -64 -108 -15 -27
-31 -49 -35 -49 -4 0 -8 -5 -8 -11 0 -6 -20 -45 -45 -86 -25 -40 -45 -78 -45
-83 0 -6 -3 -10 -8 -10 -4 0 -12 -9 -17 -20 -6 -10 -37 -65 -70 -120 -33 -55
-64 -110 -70 -120 -5 -11 -13 -20 -17 -20 -5 0 -8 -5 -8 -10 0 -19 -57 -102
-64 -92 -3 6 -19 13 -35 17 -16 3 -35 13 -41 21 -7 7 -16 11 -21 8 -5 -3 -9 0
-9 5 0 6 -3 10 -7 9 -13 -3 -183 85 -183 94 0 5 -4 7 -8 4 -7 -4 -146 62 -272
129 -19 11 -37 20 -40 20 -15 4 -66 31 -71 38 -3 5 -8 8 -10 6 -2 -1 -95 43
-206 98 -111 56 -204 98 -207 95 -3 -3 -6 -1 -6 5 0 6 -9 13 -20 16 -24 6 -24
4 -5 -69 8 -31 12 -60 10 -64 -3 -5 -1 -10 4 -12 8 -3 14 -22 26 -93 2 -11 4
-20 5 -20 1 0 3 -7 5 -15 2 -8 7 -26 10 -40 3 -14 8 -32 10 -40 2 -8 4 -15 5
-15 2 0 6 -18 14 -62 3 -18 10 -43 16 -57 5 -15 7 -26 4 -26 -4 0 -1 -7 6 -15
7 -8 10 -15 7 -15 -3 0 8 -50 24 -111 16 -61 27 -115 24 -119 -3 -5 -1 -11 4
-14 5 -3 12 -23 16 -43 5 -21 9 -42 11 -48 1 -5 5 -21 8 -35 3 -14 8 -36 11
-50 3 -14 8 -32 10 -40 2 -8 4 -15 5 -15 1 0 3 -10 6 -22 2 -12 28 -118 58
-235 30 -117 57 -224 60 -238 3 -14 7 -35 10 -47 4 -13 8 -31 10 -41 6 -25 70
-277 110 -431 19 -74 33 -138 30 -143 -3 -4 -1 -8 4 -8 5 0 10 -10 10 -22 1
-21 7 -55 12 -68 1 -3 2 -8 1 -12 0 -5 9 -8 21 -9 28 -1 2757 -1 2779 0 9 1
16 7 17 14 0 10 7 39 16 72 1 6 6 31 11 58 4 26 12 47 17 47 5 0 7 4 4 8 -3 5
20 103 50 218 30 115 56 218 58 229 2 11 7 28 11 38 4 10 5 21 1 24 -3 3 -1
12 5 20 6 7 8 13 4 13 -4 0 -2 7 5 15 7 8 10 15 7 15 -3 0 -1 15 4 33 6 17 12
41 14 52 1 11 3 20 5 20 1 0 3 9 5 20 1 11 17 76 35 145 18 69 33 130 35 135
1 6 7 30 14 55 15 53 21 78 25 105 2 11 4 20 5 20 2 0 4 7 6 15 10 45 15 69
25 105 6 22 12 49 14 60 2 11 11 49 21 85 9 36 18 76 20 90 2 14 5 27 6 30 1
3 3 10 4 15 2 6 4 13 5 18 1 4 4 12 5 17 1 6 3 11 5 13 2 2 9 30 15 62 8 37
13 60 15 63 2 1 4 7 5 12 1 6 3 11 5 13 2 3 10 37 14 62 2 11 4 20 6 20 1 0 3
9 4 20 2 11 13 56 24 100 12 44 24 95 27 113 5 30 -3 41 -19 25 -4 -5 -11 -8
-14 -9 -11 -1 -235 -114 -249 -126 -7 -6 -13 -7 -13 -2 0 5 -4 5 -8 -1 -6 -8
-116 -67 -132 -70 -12 -2 -336 -168 -347 -177 -7 -6 -13 -8 -13 -5 0 3 -32
-12 -71 -34 -40 -21 -76 -39 -81 -39 -6 0 -22 -9 -36 -19 -15 -10 -31 -20 -37
-21 -5 -1 -40 -17 -76 -35 l-66 -32 -26 42 c-15 23 -27 47 -27 54 0 6 -4 11
-9 11 -5 0 -13 9 -16 20 -3 11 -12 26 -18 33 -7 7 -23 35 -37 62 -14 28 -28
52 -31 55 -4 3 -16 21 -27 40 -48 85 -106 176 -116 182 -6 4 -7 8 -3 8 5 0 0
12 -11 28 -10 15 -22 34 -25 42 -4 8 -18 33 -32 55 -14 22 -28 47 -32 55 -4 8
-9 17 -13 20 -3 3 -28 43 -55 90 -27 47 -53 87 -57 88 -4 2 -8 10 -8 18 0 8
-4 14 -10 14 -6 0 -9 4 -8 8 2 5 -23 50 -54 101 -32 51 -58 97 -58 102 0 5 -4
9 -10 9 -5 0 -10 7 -10 15 0 8 -5 15 -11 15 -5 0 -7 5 -4 10 3 6 1 10 -5 10
-6 0 -8 5 -5 10 3 6 1 10 -4 10 -6 0 -11 4 -11 9 0 14 -62 111 -70 111 -4 0
-25 -28 -46 -62z"/>
</g>
</svg>
